<svg xmlns="http://www.w3.org/2000/svg" viewBox="0 0 320 150" width="320" height="150" class="harvestHeroSvg"><defs><linearGradient id="tubh_bg" x1="0" y1="0" x2="0" y2="1"><stop offset="0" stop-color="#FBF7EF"/><stop offset="1" stop-color="#EFE7D6"/></linearGradient><linearGradient id="tubh_en" x1="0" y1="0" x2="1" y2="0.4"><stop offset="0" stop-color="#FDFCF9"/><stop offset="0.5" stop-color="#EEEBE3"/><stop offset="1" stop-color="#D4D0C5"/></linearGradient><radialGradient id="tubh_bas" cx="0.5" cy="0.3" r="0.8"><stop offset="0" stop-color="#cfcabd"/><stop offset="1" stop-color="#a8a192"/></radialGradient><linearGradient id="tubh_cl" x1="0" y1="0" x2="0" y2="1"><stop offset="0" stop-color="#EBBA62"/><stop offset="0.5" stop-color="#CE8C2E"/><stop offset="1" stop-color="#A0641A"/></linearGradient><linearGradient id="tubh_ft" x1="0" y1="0" x2="0" y2="1"><stop offset="0" stop-color="#90805F"/><stop offset="1" stop-color="#544632"/></linearGradient><linearGradient id="tubh_blue" x1="0" y1="0" x2="0.35" y2="1"><stop offset="0" stop-color="#85A0B4"/><stop offset="1" stop-color="#4E6679"/></linearGradient><linearGradient id="tubh_rust" x1="0" y1="0" x2="0.35" y2="1"><stop offset="0" stop-color="#C58057"/><stop offset="1" stop-color="#90502E"/></linearGradient><linearGradient id="tubh_oat" x1="0" y1="0" x2="0" y2="1"><stop offset="0" stop-color="#E9DEC6"/><stop offset="1" stop-color="#CDBE9E"/></linearGradient></defs><rect x="0" y="0" width="320" height="150" fill="url(#tubh_bg)"/><ellipse cx="58" cy="100" rx="28" ry="6" fill="#000000" opacity="0.07"/><ellipse cx="262" cy="100" rx="28" ry="6" fill="#000000" opacity="0.07"/><!-- back-center shucker, head peeking over the rim --><g><path d="M 141 45 Q 160 33 179 45 L 185 61 Q 160 67 135 61 Z" fill="url(#tubh_oat)"/><path d="M 143 46 Q 160 36 177 46" fill="none" stroke="#F4ECDA" stroke-width="1.2" opacity="0.6"/><path d="M 160 39 L 160 55" stroke="#BCAC8A" stroke-width="1.1" opacity="0.7"/><path d="M 154 36 Q 160 41 166 36 L 165 31 L 155 31 Z" fill="#D9A57C"/><ellipse cx="160" cy="25" rx="9.6" ry="10.4" fill="#E3B083"/><path d="M 150.5 27 Q 149 14 160 13 Q 171 14 169.5 27 Q 170 20 160 19 Q 150 20 150.5 27 Z" fill="#5A4030"/><path d="M 151.5 23 Q 153 16 160 15.5 Q 167 16 168.5 23 Q 166 18 160 17.6 Q 154 18 151.5 23 Z" fill="#6B4E3A"/><path d="M 154.6 23.4 Q 156.2 22.8 157.8 23.4" fill="none" stroke="#5A4030" stroke-width="0.6" stroke-linecap="round" opacity="0.7"/><path d="M 162.2 23.4 Q 163.8 22.8 165.4 23.4" fill="none" stroke="#5A4030" stroke-width="0.6" stroke-linecap="round" opacity="0.7"/><path d="M 154.6 25.4 Q 156 26.2 157.4 25.5" fill="none" stroke="#3C2A1C" stroke-width="0.9" stroke-linecap="round"/><path d="M 162.6 25.4 Q 164 26.2 165.4 25.5" fill="none" stroke="#3C2A1C" stroke-width="0.9" stroke-linecap="round"/><path d="M 159.4 26.4 Q 159.6 28 160.4 28.6" fill="none" stroke="#C98A5E" stroke-width="0.6" stroke-linecap="round" opacity="0.8"/><path d="M 157.6 30.4 Q 160 31.5 162.4 30.4" fill="none" stroke="#A86846" stroke-width="0.9" stroke-linecap="round"/><ellipse cx="153.5" cy="28" rx="1.5" ry="1" fill="#E89C72" opacity="0.4"/><ellipse cx="166.5" cy="28" rx="1.5" ry="1" fill="#E89C72" opacity="0.4"/></g><!-- left shucker body, leaning toward tub --><g><path d="M 30 70 Q 24 88 36 98 Q 52 103 68 99 L 72 86 Q 54 86 46 74 Q 42 66 44 60 Z" fill="url(#tubh_blue)"/><path d="M 47 54 Q 56 45 70 48 Q 86 56 92 74 Q 84 80 70 78 Q 54 74 46 64 Q 44 58 47 54 Z" fill="url(#tubh_blue)"/><path d="M 50 56 Q 62 50 76 56" fill="none" stroke="#9AB1C3" stroke-width="1" opacity="0.4"/><path d="M 52 68 Q 66 72 84 70" fill="none" stroke="#3C4F60" stroke-width="1.1" opacity="0.35"/><ellipse cx="84" cy="66" rx="8" ry="7" fill="url(#tubh_blue)"/><path d="M 58 47 Q 65 52 73 46 L 71 39 L 60 40 Z" fill="#D69A6E"/><g transform="rotate(22 62 31)"><ellipse cx="62" cy="31" rx="10.2" ry="10.8" fill="#E6B488"/><ellipse cx="52" cy="32" rx="2" ry="3" fill="#D69A6E"/><path d="M 51.5 32 Q 50 18 62 17 Q 74 18 72.5 31 Q 73 23 62 22 Q 52 23 51.5 32 Z" fill="#4A3526"/><path d="M 53 27 Q 55 20 62 19.5 Q 69 20 71 27 Q 68 22 62 21.6 Q 56 22 53 27 Z" fill="#5C4332"/><path d="M 57 29.4 Q 59.4 28.6 61.6 29.4" fill="none" stroke="#5A4030" stroke-width="0.7" stroke-linecap="round" opacity="0.7"/><path d="M 65.4 29.4 Q 67.6 28.6 69.8 29.4" fill="none" stroke="#5A4030" stroke-width="0.7" stroke-linecap="round" opacity="0.7"/><path d="M 57.6 32 Q 59.3 32.9 61 32.1" fill="none" stroke="#3C2A1C" stroke-width="1" stroke-linecap="round"/><path d="M 65.6 32 Q 67.3 32.9 69 32.1" fill="none" stroke="#3C2A1C" stroke-width="1" stroke-linecap="round"/><path d="M 63.4 33.4 Q 63.6 35.4 62.6 36.4" fill="none" stroke="#C98A5E" stroke-width="0.7" stroke-linecap="round" opacity="0.8"/><path d="M 61.4 39 Q 64 40.3 67 38.9" fill="none" stroke="#A86846" stroke-width="1" stroke-linecap="round"/><path d="M 56 36 Q 58 41 63 42.5" fill="none" stroke="#C98A5E" stroke-width="0.8" opacity="0.4" stroke-linecap="round"/><ellipse cx="56" cy="36.4" rx="1.7" ry="1.1" fill="#EA9E72" opacity="0.4"/><ellipse cx="70.5" cy="35.6" rx="1.7" ry="1.1" fill="#EA9E72" opacity="0.4"/></g><path d="M 78 60 Q 92 64 100 72 L 94 80 Q 84 70 72 67 Z" fill="url(#tubh_blue)"/><path d="M 76 64 Q 90 70 100 76 L 95 84 Q 82 78 70 75 Z" fill="url(#tubh_blue)"/><path d="M 94 70 L 100 72 L 97 79 L 91 77 Z" fill="#9AB1C3"/><path d="M 93 75 L 100 77 L 97 84 L 90 82 Z" fill="#9AB1C3"/><path d="M 80 66 Q 90 70 96 76" fill="none" stroke="#3C4F60" stroke-width="1" opacity="0.35"/></g><!-- right shucker body, leaning toward tub --><g><path d="M 290 70 Q 296 88 284 98 Q 268 103 252 99 L 248 86 Q 266 86 274 74 Q 278 66 276 60 Z" fill="url(#tubh_rust)"/><path d="M 273 54 Q 264 45 250 48 Q 234 56 228 74 Q 236 80 250 78 Q 266 74 274 64 Q 276 58 273 54 Z" fill="url(#tubh_rust)"/><path d="M 240 56 Q 252 50 263 58 Q 266 72 260 82 Q 248 86 236 80 Q 234 66 240 56 Z" fill="url(#tubh_oat)"/><path d="M 242 57 Q 252 53 262 59" fill="none" stroke="#F4ECDA" stroke-width="1.1" opacity="0.6"/><path d="M 250 54 Q 254 43 257 39" fill="none" stroke="#CDBE9E" stroke-width="2" opacity="0.85"/><ellipse cx="236" cy="66" rx="8" ry="7" fill="url(#tubh_rust)"/><path d="M 262 47 Q 255 52 247 46 L 249 39 L 260 40 Z" fill="#C98A5E"/><g transform="rotate(-22 258 31)"><ellipse cx="258" cy="31" rx="10.2" ry="10.8" fill="#D49E72"/><ellipse cx="268" cy="32" rx="2" ry="3" fill="#C98A5E"/><path d="M 268.5 32 Q 270 18 258 17 Q 246 18 247.5 31 Q 247 23 258 22 Q 268 23 268.5 32 Z" fill="#3A2A20"/><path d="M 247 24 Q 246 19 250 17 Q 258 14 266 18 Q 270 21 268 26 Q 265 20 258 19.5 Q 250 20 247 26 Z" fill="#CDBE9E"/><path d="M 258.4 29.4 Q 260.6 28.6 263 29.4" fill="none" stroke="#4A3526" stroke-width="0.7" stroke-linecap="round" opacity="0.7"/><path d="M 250.2 29.4 Q 252.4 28.6 254.6 29.4" fill="none" stroke="#4A3526" stroke-width="0.7" stroke-linecap="round" opacity="0.7"/><path d="M 259 32 Q 260.7 32.9 262.4 32.1" fill="none" stroke="#3C2A1C" stroke-width="1" stroke-linecap="round"/><path d="M 251 32 Q 252.7 32.9 254.4 32.1" fill="none" stroke="#3C2A1C" stroke-width="1" stroke-linecap="round"/><path d="M 256.6 33.4 Q 256.4 35.4 257.4 36.4" fill="none" stroke="#B07A52" stroke-width="0.7" stroke-linecap="round" opacity="0.8"/><path d="M 253 39 Q 255.6 40.3 258.6 38.9" fill="none" stroke="#9A5A3A" stroke-width="1" stroke-linecap="round"/><path d="M 264 36 Q 262 41 257 42.5" fill="none" stroke="#B07A52" stroke-width="0.8" opacity="0.4" stroke-linecap="round"/><ellipse cx="264" cy="36.4" rx="1.7" ry="1.1" fill="#DC8E62" opacity="0.4"/><ellipse cx="249.5" cy="35.6" rx="1.7" ry="1.1" fill="#DC8E62" opacity="0.4"/></g><path d="M 242 60 Q 228 64 220 72 L 226 80 Q 236 70 248 67 Z" fill="url(#tubh_rust)"/><path d="M 244 64 Q 230 70 220 76 L 225 84 Q 238 78 250 75 Z" fill="url(#tubh_rust)"/><path d="M 226 70 L 220 72 L 223 79 L 229 77 Z" fill="#CE9070"/><path d="M 227 75 L 220 77 L 223 84 L 230 82 Z" fill="#CE9070"/><path d="M 240 66 Q 230 70 224 76" fill="none" stroke="#7A4226" stroke-width="1" opacity="0.3"/></g><!-- table cloth, fully draped + fringe --><path d="M 14 99 Q 160 101 306 99 L 300 146 Q 160 153 20 146 Z" fill="url(#tubh_cl)"/><path d="M 18 100 Q 160 102 302 100" fill="none" stroke="#F4CE7E" stroke-width="1.6" opacity="0.6"/><g stroke="#8C5616" stroke-width="1" opacity="0.4" fill="none"><path d="M 70 104 Q 68 124 66 142"/><path d="M 120 105 Q 119 125 118 144"/><path d="M 200 105 Q 201 125 202 144"/><path d="M 250 104 Q 252 124 254 142"/></g><rect x="22" y="139" width="276" height="4" fill="#E8C074" opacity="0.5"/><g stroke="#8C5616" stroke-width="1.2" stroke-linecap="round" opacity="0.85"><line x1="30" y1="143" x2="29" y2="150"/><line x1="44" y1="143.6" x2="43.6" y2="150.6"/><line x1="58" y1="144" x2="58" y2="151"/><line x1="72" y1="144.4" x2="72" y2="151.4"/><line x1="86" y1="144.7" x2="86.2" y2="151.7"/><line x1="100" y1="145" x2="100" y2="152"/><line x1="114" y1="145.2" x2="114" y2="152.2"/><line x1="128" y1="145.3" x2="128" y2="152.3"/><line x1="142" y1="145.4" x2="142" y2="152.4"/><line x1="156" y1="145.5" x2="156" y2="152.5"/><line x1="170" y1="145.5" x2="170" y2="152.5"/><line x1="184" y1="145.4" x2="184" y2="152.4"/><line x1="198" y1="145.3" x2="198" y2="152.3"/><line x1="212" y1="145.2" x2="212.2" y2="152.2"/><line x1="226" y1="145" x2="226.2" y2="152"/><line x1="240" y1="144.7" x2="240.4" y2="151.7"/><line x1="254" y1="144.4" x2="254.4" y2="151.4"/><line x1="268" y1="144" x2="268.4" y2="151"/><line x1="282" y1="143.6" x2="282.6" y2="150.6"/><line x1="292" y1="143" x2="293" y2="150"/></g><!-- contact shadow on cloth --><ellipse cx="160" cy="122" rx="78" ry="7" fill="#000000" opacity="0.14"/><!-- ornate ball-and-claw feet (behind body) --><g><g fill="#443824"><ellipse cx="112" cy="116" rx="5" ry="5.6"/><ellipse cx="208" cy="116" rx="5" ry="5.6"/></g><path d="M 92 110 C 80 116 78 130 87 135 L 109 135 C 101 126 105 112 113 108 Z" fill="url(#tubh_ft)"/><path d="M 94 112 C 85 118 84 128 90 133" fill="none" stroke="#A8997F" stroke-width="1.3" opacity="0.55"/><ellipse cx="96" cy="138" rx="10.5" ry="8.5" fill="url(#tubh_ft)"/><ellipse cx="91" cy="134" rx="3.4" ry="2.2" fill="#AC9D82" opacity="0.7"/><path d="M 87 130 Q 84 138 88 143" fill="none" stroke="#352B1D" stroke-width="3.2" stroke-linecap="round"/><path d="M 96 129 Q 96 138 96 144" fill="none" stroke="#352B1D" stroke-width="3.2" stroke-linecap="round"/><path d="M 105 130 Q 108 138 104 143" fill="none" stroke="#352B1D" stroke-width="3.2" stroke-linecap="round"/><path d="M 228 110 C 240 116 242 130 233 135 L 211 135 C 219 126 215 112 207 108 Z" fill="url(#tubh_ft)"/><path d="M 226 112 C 235 118 236 128 230 133" fill="none" stroke="#A8997F" stroke-width="1.3" opacity="0.55"/><ellipse cx="224" cy="138" rx="10.5" ry="8.5" fill="url(#tubh_ft)"/><ellipse cx="219" cy="134" rx="3.4" ry="2.2" fill="#AC9D82" opacity="0.7"/><path d="M 215 130 Q 212 138 216 143" fill="none" stroke="#352B1D" stroke-width="3.2" stroke-linecap="round"/><path d="M 224 129 Q 224 138 224 144" fill="none" stroke="#352B1D" stroke-width="3.2" stroke-linecap="round"/><path d="M 233 130 Q 236 138 232 143" fill="none" stroke="#352B1D" stroke-width="3.2" stroke-linecap="round"/></g><!-- tub body --><path d="M 92 54 C 84 80 96 110 118 116 Q 160 121 202 116 C 224 110 236 80 228 54 A 68 16 0 0 1 92 54 Z" fill="url(#tubh_en)"/><path d="M 100 62 C 92 84 98 106 118 113 L 130 111 C 108 104 104 84 110 64 Z" fill="#FFFFFF" opacity="0.30"/><path d="M 220 62 C 228 84 222 106 202 113 L 190 111 C 212 104 216 84 210 64 Z" fill="#9C958A" opacity="0.28"/><path d="M 118 116 Q 160 120 202 116" fill="none" stroke="#B7B0A2" stroke-width="1.1" opacity="0.5"/><circle cx="100" cy="92" r="1.8" fill="#8a8478"/><circle cx="222" cy="86" r="1.5" fill="#7e786c"/><circle cx="150" cy="111" r="1.2" fill="#8a8478"/><path d="M 198 66 Q 202 88 198 108" fill="none" stroke="#bdb7ab" stroke-width="0.6" opacity="0.5"/><!-- rolled rim --><ellipse cx="160" cy="54" rx="68" ry="16" fill="#F5F3ED" stroke="#C9C3B4" stroke-width="1.4"/><ellipse cx="160" cy="52" rx="64" ry="13.5" fill="none" stroke="#FFFFFF" stroke-width="1.2" opacity="0.7"/><ellipse cx="160" cy="55.5" rx="56" ry="12.5" fill="url(#tubh_bas)"/><ellipse cx="160" cy="55.5" rx="56" ry="12.5" fill="none" stroke="#A39C8C" stroke-width="1.1"/><path d="M 108 53 Q 160 42 212 53 Q 160 63 108 53 Z" fill="#968E7E" opacity="0.5"/><!-- a wire shucking basket resting in the tub (back-left) --><g transform="translate(124 50)" opacity="0.9"><ellipse cx="0" cy="0" rx="16" ry="6" fill="#cfd6d2" opacity="0.5" stroke="#7d8a86" stroke-width="0.8"/><g stroke="#7d8a86" stroke-width="0.5" opacity="0.7" fill="none"><line x1="-12" y1="-2.5" x2="-12" y2="4"/><line x1="-6" y1="-4" x2="-6" y2="5.5"/><line x1="0" y1="-4.5" x2="0" y2="6"/><line x1="6" y1="-4" x2="6" y2="5.5"/><line x1="12" y1="-2.5" x2="12" y2="4"/><path d="M -15 0 Q 0 4 15 0"/><path d="M -13 3 Q 0 7 13 3"/></g></g><!-- oyster pile heaped in the tub (natural shell, static) --><g id="oysterPile"><g class="pileBack"><ellipse cx="140" cy="50" rx="11" ry="5" fill="#a99e8a" transform="rotate(-13 140 50)"/><ellipse cx="158" cy="46" rx="12" ry="5.2" fill="#c8bda8" transform="rotate(6 158 46)"/><ellipse cx="176" cy="49" rx="11" ry="5" fill="#b7ac97" transform="rotate(-9 176 49)"/><ellipse cx="150" cy="53" rx="11" ry="5" fill="#beb39e" transform="rotate(10 150 53)"/><ellipse cx="168" cy="53" rx="10.4" ry="4.8" fill="#a99e8a" transform="rotate(-6 168 53)"/><path d="M 146 48 Q 158 45 170 48" fill="none" stroke="#ece3d0" stroke-width="1" opacity="0.7"/></g><g class="pileMid"><ellipse cx="128" cy="60" rx="11.6" ry="5.4" fill="#b7ac97" transform="rotate(-18 128 60)"/><ellipse cx="146" cy="56" rx="12.4" ry="5.6" fill="#d3c9b4" transform="rotate(7 146 56)"/><ellipse cx="164" cy="56" rx="12" ry="5.4" fill="#c8bda8" transform="rotate(-5 164 56)"/><ellipse cx="182" cy="60" rx="11" ry="5.2" fill="#a99e8a" transform="rotate(15 182 60)"/><ellipse cx="158" cy="62" rx="12.6" ry="5.6" fill="#cabfa9" transform="rotate(3 158 62)"/><ellipse cx="136" cy="63" rx="10" ry="4.8" fill="#b0a591" transform="rotate(-22 136 63)"/><path d="M 134 56.6 Q 146 53.6 158 56.4" fill="none" stroke="#ece3d0" stroke-width="1.1" opacity="0.65"/><path d="M 134 58.4 Q 144 61 154 58.4" fill="none" stroke="#6f6757" stroke-width="0.7" opacity="0.4"/></g><g class="pileFront"><ellipse cx="120" cy="70" rx="11" ry="5.4" fill="#cabfa9" transform="rotate(-22 120 70)"/><ellipse cx="138" cy="66" rx="12.8" ry="6" fill="#d3c9b4" transform="rotate(8 138 66)"/><ellipse cx="160" cy="64" rx="13.4" ry="6.2" fill="#e0d6c0" transform="rotate(-4 160 64)"/><ellipse cx="182" cy="66" rx="12.4" ry="6" fill="#cabfa9" transform="rotate(14 182 66)"/><ellipse cx="200" cy="70" rx="10.4" ry="5.2" fill="#b7ac97" transform="rotate(-16 200 70)"/><ellipse cx="128" cy="74" rx="9" ry="4.4" fill="#beb39e" transform="rotate(-12 128 74)"/><ellipse cx="146" cy="76" rx="9.4" ry="4.6" fill="#d3c9b4" transform="rotate(8 146 76)"/><ellipse cx="166" cy="76" rx="9.4" ry="4.6" fill="#c8bda8" transform="rotate(-6 166 76)"/><ellipse cx="186" cy="74" rx="8.4" ry="4.2" fill="#a99e8a" transform="rotate(18 186 74)"/><path d="M 124 68 Q 138 65 152 67" fill="none" stroke="#efe6d2" stroke-width="1.2" opacity="0.75"/><path d="M 162 63 Q 176 61 190 64" fill="none" stroke="#efe6d2" stroke-width="1.1" opacity="0.6"/><path d="M 128 67 Q 134 70 140 67" fill="none" stroke="#6f6757" stroke-width="0.6" opacity="0.45"/><path d="M 108 77 Q 160 81 212 77" fill="none" stroke="#6f6757" stroke-width="0.8" opacity="0.32"/></g></g><path d="M 100 58 Q 160 74 220 58" fill="none" stroke="#EFEDE6" stroke-width="2" opacity="0.85"/><!-- left shucker: cupping hand holds a half-shell, knife hand opens the hinge --><g><path d="M 86 76 Q 92 71 98 69 Q 102 68.5 103 71 Q 102 73.5 98 74.5 Q 93 76 89 79 Z" fill="#E6B488"/><path d="M 88 76.4 Q 93 72.6 98 71" fill="none" stroke="#F0C79B" stroke-width="0.7" opacity="0.5"/><path d="M 98 70 Q 100 71.5 99 73.4" fill="none" stroke="#C98A5E" stroke-width="0.6" opacity="0.4"/><path d="M 96 66 Q 99 62.5 104 63 Q 108.5 64 109 68 Q 108 72 102.5 72.5 Q 97 72 95 69 Q 94 67 96 66 Z" fill="#E6B488"/><ellipse cx="104" cy="63.4" rx="6.2" ry="3.7" fill="#cabfa6" transform="rotate(-14 104 63.4)"/><ellipse cx="104" cy="63" rx="4.1" ry="2.2" fill="#b3a98f" transform="rotate(-14 104 63.4)"/><ellipse cx="103.4" cy="62.6" rx="2.2" ry="1.2" fill="#cdc3aa" transform="rotate(-14 104 63.4)" opacity="0.85"/><path d="M 99 64.6 Q 104 61.8 109.4 63.8" fill="none" stroke="#efe6d2" stroke-width="0.7" opacity="0.7"/><path d="M 105.6 60 Q 110.6 58.4 112.4 62 Q 112.8 65 110 65.4 Q 107.6 65 106.6 63 Q 105.4 61.2 105.6 60 Z" fill="#E6B488"/><path d="M 108 59.6 Q 109 61.6 108.8 64.4" fill="none" stroke="#C98A5E" stroke-width="0.6" opacity="0.6"/><path d="M 110.4 59.8 Q 111.2 61.8 110.8 64.6" fill="none" stroke="#C98A5E" stroke-width="0.6" opacity="0.6"/><path d="M 105.8 60.6 Q 109 59.4 112 61.4" fill="none" stroke="#F0C79B" stroke-width="0.6" opacity="0.6"/><path d="M 95.5 68 Q 97 64.8 99.6 65.2 Q 101 67 99.8 69.2 Q 97.8 70.8 95.5 69.4 Q 94.8 68.6 95.5 68 Z" fill="#E6B488"/><path d="M 96.6 68.4 Q 98.4 67.2 99.8 68.4" fill="none" stroke="#C98A5E" stroke-width="0.5" opacity="0.55"/><path d="M 118 57 Q 123 56 125 59 Q 125 62 122 63 Q 117.6 63.4 116 61 Q 116 58 118 57 Z" fill="#E6B488"/><path d="M 118.4 58 L 117.8 61.4" fill="none" stroke="#C98A5E" stroke-width="0.5" opacity="0.55"/><path d="M 120.6 57.6 L 120.2 61.6" fill="none" stroke="#C98A5E" stroke-width="0.5" opacity="0.55"/><path d="M 122.8 57.8 L 122.6 61.4" fill="none" stroke="#C98A5E" stroke-width="0.5" opacity="0.55"/><g transform="translate(119 61) rotate(-202)"><rect x="-1" y="-1.7" width="7" height="3.4" rx="1.6" fill="#7A5A3A"/><rect x="0.4" y="-0.9" width="4.2" height="0.9" rx="0.4" fill="#9A7A52" opacity="0.7"/><path d="M 6 -1.1 L 11.5 -0.4 Q 13.4 0.2 11.5 0.8 L 6 1.4 Z" fill="#CDD2D7"/><path d="M 6 -0.5 L 10.8 0.1" stroke="#F2F5F8" stroke-width="0.5" opacity="0.9"/></g><path d="M 116.4 61.6 Q 114 62.4 112.6 60.6 Q 113.6 58.8 116 59.4 Z" fill="#F0C79B"/></g><!-- right shucker: mirror of the left cluster (true mirror), warmer skin --><g transform="translate(320,0) scale(-1,1)"><path d="M 86 76 Q 92 71 98 69 Q 102 68.5 103 71 Q 102 73.5 98 74.5 Q 93 76 89 79 Z" fill="#D49E72"/><path d="M 88 76.4 Q 93 72.6 98 71" fill="none" stroke="#E6B79C" stroke-width="0.7" opacity="0.5"/><path d="M 98 70 Q 100 71.5 99 73.4" fill="none" stroke="#B07A52" stroke-width="0.6" opacity="0.4"/><path d="M 96 66 Q 99 62.5 104 63 Q 108.5 64 109 68 Q 108 72 102.5 72.5 Q 97 72 95 69 Q 94 67 96 66 Z" fill="#D49E72"/><ellipse cx="104" cy="63.4" rx="6.2" ry="3.7" fill="#cabfa6" transform="rotate(-14 104 63.4)"/><ellipse cx="104" cy="63" rx="4.1" ry="2.2" fill="#b3a98f" transform="rotate(-14 104 63.4)"/><ellipse cx="103.4" cy="62.6" rx="2.2" ry="1.2" fill="#cdc3aa" transform="rotate(-14 104 63.4)" opacity="0.85"/><path d="M 99 64.6 Q 104 61.8 109.4 63.8" fill="none" stroke="#efe6d2" stroke-width="0.7" opacity="0.7"/><path d="M 105.6 60 Q 110.6 58.4 112.4 62 Q 112.8 65 110 65.4 Q 107.6 65 106.6 63 Q 105.4 61.2 105.6 60 Z" fill="#D49E72"/><path d="M 108 59.6 Q 109 61.6 108.8 64.4" fill="none" stroke="#B07A52" stroke-width="0.6" opacity="0.6"/><path d="M 110.4 59.8 Q 111.2 61.8 110.8 64.6" fill="none" stroke="#B07A52" stroke-width="0.6" opacity="0.6"/><path d="M 105.8 60.6 Q 109 59.4 112 61.4" fill="none" stroke="#E6B79C" stroke-width="0.6" opacity="0.6"/><path d="M 95.5 68 Q 97 64.8 99.6 65.2 Q 101 67 99.8 69.2 Q 97.8 70.8 95.5 69.4 Q 94.8 68.6 95.5 68 Z" fill="#D49E72"/><path d="M 96.6 68.4 Q 98.4 67.2 99.8 68.4" fill="none" stroke="#B07A52" stroke-width="0.5" opacity="0.55"/><path d="M 118 57 Q 123 56 125 59 Q 125 62 122 63 Q 117.6 63.4 116 61 Q 116 58 118 57 Z" fill="#D49E72"/><path d="M 118.4 58 L 117.8 61.4" fill="none" stroke="#B07A52" stroke-width="0.5" opacity="0.55"/><path d="M 120.6 57.6 L 120.2 61.6" fill="none" stroke="#B07A52" stroke-width="0.5" opacity="0.55"/><path d="M 122.8 57.8 L 122.6 61.4" fill="none" stroke="#B07A52" stroke-width="0.5" opacity="0.55"/><g transform="translate(119 61) rotate(-202)"><rect x="-1" y="-1.7" width="7" height="3.4" rx="1.6" fill="#7A5A3A"/><rect x="0.4" y="-0.9" width="4.2" height="0.9" rx="0.4" fill="#9A7A52" opacity="0.7"/><path d="M 6 -1.1 L 11.5 -0.4 Q 13.4 0.2 11.5 0.8 L 6 1.4 Z" fill="#CDD2D7"/><path d="M 6 -0.5 L 10.8 0.1" stroke="#F2F5F8" stroke-width="0.5" opacity="0.9"/></g><path d="M 116.4 61.6 Q 114 62.4 112.6 60.6 Q 113.6 58.8 116 59.4 Z" fill="#E6B79C"/></g><!-- still-life props on the cloth --><g transform="translate(56 124)"><ellipse cx="0" cy="0" rx="9" ry="7.5" fill="#F2D24E"/><ellipse cx="0" cy="-0.5" rx="7" ry="5.8" fill="#FBEC9A"/><g stroke="#E8D26A" stroke-width="0.7" opacity="0.8"><line x1="0" y1="-5" x2="0" y2="5"/><line x1="-5" y1="-3" x2="5" y2="3"/><line x1="-5" y1="3" x2="5" y2="-3"/></g><ellipse cx="0" cy="0" rx="2" ry="1.6" fill="#FFFBE0"/><ellipse cx="3" cy="6.5" rx="9" ry="2.2" fill="#000000" opacity="0.1"/></g><g transform="translate(232 128) rotate(-18)"><rect x="0" y="-2.6" width="20" height="5.2" rx="2.4" fill="#7A5A3A"/><rect x="1.5" y="-1.6" width="16" height="1" rx="0.5" fill="#9A7A52" opacity="0.7"/><path d="M 20 -2 L 36 -1 Q 39 0 36 1 L 20 2 Z" fill="#C8CDD2"/><path d="M 20 -1.4 L 35 -0.6" stroke="#EEF1F4" stroke-width="0.7" opacity="0.8"/><ellipse cx="20" cy="6" rx="20" ry="2.4" fill="#000000" opacity="0.1"/></g><g transform="translate(96 132)"><ellipse cx="0" cy="0" rx="7" ry="4" fill="#d3c9b4" transform="rotate(-14)"/><ellipse cx="0" cy="-0.4" rx="4.6" ry="2.4" fill="#bdb09a" transform="rotate(-14)"/><path d="M -5 0.5 Q 0 2 5 0.5" fill="none" stroke="#6f6757" stroke-width="0.5" opacity="0.5"/></g><g transform="translate(204 134)"><ellipse cx="0" cy="0" rx="6.4" ry="3.6" fill="#c8bda8" transform="rotate(12)"/><ellipse cx="0" cy="-0.3" rx="4" ry="2.1" fill="#b0a591" transform="rotate(12)"/></g></svg>