<?xml version="1.0" encoding="UTF-8"?>
<!-- SpatMap tub art — EMPTY (clawfoot tub, no pile). SOURCE OF TRUTH is the inline copy in spatmap-v3.html; this file mirrors it. -->
<svg xmlns="http://www.w3.org/2000/svg" viewBox="0 0 120 110" width="120" height="110" class="bargeSvg">
 <defs>
  <linearGradient id="tube_en" x1="0" y1="0" x2="1" y2="0.35">
   <stop offset="0" stop-color="#FCFBF7"/><stop offset="0.5" stop-color="#EDEAE2"/><stop offset="1" stop-color="#D4D0C5"/>
  </linearGradient>
  <radialGradient id="tube_bas" cx="0.5" cy="0.32" r="0.75">
   <stop offset="0" stop-color="#d3cec2"/><stop offset="1" stop-color="#aaa394"/>
  </radialGradient>
  <linearGradient id="tube_cl" x1="0" y1="0" x2="0" y2="1">
   <stop offset="0" stop-color="#E8B65E"/><stop offset="0.55" stop-color="#CC8A2C"/><stop offset="1" stop-color="#A86A18"/>
  </linearGradient>
  <linearGradient id="tube_ft" x1="0" y1="0" x2="0" y2="1">
   <stop offset="0" stop-color="#8E7E66"/><stop offset="1" stop-color="#574A3A"/>
  </linearGradient>
 </defs>
 <path d="M 16 90 Q 60 84 104 90 L 102 103 Q 60 109 18 103 Z" fill="url(#tube_cl)" opacity="0.92"/>
 <path d="M 18 91 Q 60 86 102 91" fill="none" stroke="#F2CC7C" stroke-width="1" opacity="0.6"/>
 <g stroke="#90591A" stroke-width="0.8" opacity="0.55" stroke-linecap="round">
  <line x1="24" y1="103" x2="23.5" y2="106"/><line x1="36" y1="104" x2="36" y2="107"/><line x1="48" y1="104.6" x2="48" y2="107.6"/>
  <line x1="60" y1="104.8" x2="60" y2="107.8"/><line x1="72" y1="104.6" x2="72" y2="107.6"/><line x1="84" y1="104" x2="84.4" y2="107"/><line x1="96" y1="103" x2="96.5" y2="106"/>
 </g>
 <ellipse cx="60" cy="99" rx="42" ry="4.4" fill="#000000" opacity="0.16"/>
 <g>
  <g fill="#483C2C"><ellipse cx="40" cy="89" rx="3.2" ry="3.8"/><ellipse cx="80" cy="89" rx="3.2" ry="3.8"/></g>
  <path d="M 30 78 C 23 82 22 90 27 93 L 39 93 C 35 88 37 80 41 77 Z" fill="url(#tube_ft)"/>
  <path d="M 31 79 C 26 83 26 89 29 92" fill="none" stroke="#A8997F" stroke-width="0.9" opacity="0.6"/>
  <ellipse cx="32" cy="95" rx="6.4" ry="5.2" fill="url(#tube_ft)"/>
  <ellipse cx="29.5" cy="93" rx="2.1" ry="1.4" fill="#AC9D82" opacity="0.7"/>
  <path d="M 28 91 Q 26 97 29 100" fill="none" stroke="#3E3324" stroke-width="2" stroke-linecap="round"/>
  <path d="M 32 90.5 Q 32 97 32 100.5" fill="none" stroke="#3E3324" stroke-width="2" stroke-linecap="round"/>
  <path d="M 37 91 Q 39 97 35 100" fill="none" stroke="#3E3324" stroke-width="2" stroke-linecap="round"/>
  <path d="M 90 78 C 97 82 98 90 93 93 L 81 93 C 85 88 83 80 79 77 Z" fill="url(#tube_ft)"/>
  <path d="M 89 79 C 94 83 94 89 91 92" fill="none" stroke="#A8997F" stroke-width="0.9" opacity="0.6"/>
  <ellipse cx="88" cy="95" rx="6.4" ry="5.2" fill="url(#tube_ft)"/>
  <ellipse cx="85.5" cy="93" rx="2.1" ry="1.4" fill="#AC9D82" opacity="0.7"/>
  <path d="M 84 91 Q 82 97 85 100" fill="none" stroke="#3E3324" stroke-width="2" stroke-linecap="round"/>
  <path d="M 88 90.5 Q 88 97 88 100.5" fill="none" stroke="#3E3324" stroke-width="2" stroke-linecap="round"/>
  <path d="M 93 91 Q 95 97 91 100" fill="none" stroke="#3E3324" stroke-width="2" stroke-linecap="round"/>
 </g>
 <path d="M 16 48 C 12 62 16 76 30 82 Q 60 92 90 82 C 104 76 108 62 104 48 A 44 12 0 0 1 16 48 Z" fill="url(#tube_en)"/>
 <path d="M 22 53 C 18 64 21 76 32 81 L 39 79 C 28 74 25 64 29 54 Z" fill="#FFFFFF" opacity="0.34"/>
 <path d="M 100 52 C 104 64 101 76 88 81 L 81 79 C 92 74 95 64 91 54 Z" fill="#9C958A" opacity="0.30"/>
 <circle cx="34" cy="74" r="1.1" fill="#8a8478"/><circle cx="82" cy="70" r="0.9" fill="#7e786c"/>
 <path d="M 71 58 Q 73 66 71 74" fill="none" stroke="#bdb7ab" stroke-width="0.4" opacity="0.5"/>
 <ellipse cx="60" cy="48" rx="44" ry="12" fill="#F4F2EC" stroke="#C9C3B4" stroke-width="1"/>
 <ellipse cx="60" cy="46.8" rx="41.5" ry="10" fill="none" stroke="#FFFFFF" stroke-width="0.9" opacity="0.7"/>
 <ellipse cx="60" cy="49" rx="36" ry="9" fill="url(#tube_bas)"/>
 <ellipse cx="60" cy="49" rx="36" ry="9" fill="none" stroke="#A39C8C" stroke-width="0.8"/>
 <path d="M 30 47 Q 60 40.5 90 47 Q 60 53 30 47 Z" fill="#968E7E" opacity="0.45"/>
 <!-- shallow water sheen + a couple leftover shells in the empty basin -->
 <ellipse cx="58" cy="51.5" rx="22" ry="4.2" fill="#DDEAEC" opacity="0.55"/>
 <ellipse cx="52" cy="51" rx="9" ry="2.4" fill="#FFFFFF" opacity="0.45"/>
 <ellipse cx="50" cy="52" rx="4" ry="1.9" fill="#b7ac97" transform="rotate(-16 50 52)" opacity="0.92"/>
 <path d="M 47 52.3 Q 50 53.4 53 52.3" fill="none" stroke="#6f6757" stroke-width="0.5" opacity="0.5"/>
 <ellipse cx="68" cy="51.4" rx="3.4" ry="1.6" fill="#c8bda8" transform="rotate(12 68 51.4)" opacity="0.9"/>
 <path d="M 24 49 Q 60 60 96 49" fill="none" stroke="#EFEDE6" stroke-width="1.4" opacity="0.85"/>
</svg>
